<svg version="1.1" id="Layer_1" xmlns="http://www.w3.org/2000/svg" xmlns:xlink="http://www.w3.org/1999/xlink" x="0px" y="0px"
	 width="100%" viewBox="0 0 500 500" enable-background="new 0 0 500 500" xml:space="preserve">
<path fill="#000000" opacity="1.000000" stroke="none" 
	d="
M277.000000,501.000000 
	C184.666687,501.000000 92.833374,501.000000 1.000049,501.000000 
	C1.000033,334.333405 1.000033,167.666794 1.000016,1.000139 
	C167.666565,1.000093 334.333130,1.000093 500.999756,1.000046 
	C500.999847,167.666519 500.999847,334.333038 500.999939,500.999786 
	C426.500000,501.000000 352.000000,501.000000 277.000000,501.000000 
M285.269501,218.557999 
	C284.869019,217.653381 284.332581,216.783920 284.088257,215.838928 
	C279.569977,198.365097 263.884918,193.464050 249.008545,198.630157 
	C238.900452,202.140396 234.242157,210.444031 232.272461,220.604660 
	C231.999130,209.189377 232.014709,197.873840 231.992340,186.558365 
	C231.981720,181.189301 229.260376,178.066833 224.635376,178.005890 
	C219.222687,177.934570 216.115952,180.978699 216.018799,186.601028 
	C215.941925,191.049698 216.003342,195.500793 216.003342,199.355453 
	C211.530548,198.633820 207.454926,197.976273 203.146759,197.281204 
	C202.764984,191.548492 204.488358,183.680328 195.973389,183.395142 
	C186.823654,183.088699 186.826279,191.051773 186.792160,197.152802 
	C180.684875,199.689545 175.493469,198.850891 169.765411,197.406174 
	C163.664658,195.867462 156.838989,196.163116 151.037949,200.020370 
	C148.074905,201.990570 145.207397,204.104492 142.296722,206.153458 
	C143.394867,207.194885 143.131348,206.786621 143.084946,206.355011 
	C142.361511,199.627304 139.822037,196.808304 134.627975,197.011703 
	C129.493988,197.212753 127.016716,200.477295 127.003311,207.107346 
	C126.988823,214.271255 127.062180,221.435989 126.973587,228.598831 
	C126.911018,233.657028 123.000900,238.111511 118.588966,237.926132 
	C112.647415,237.676514 109.612900,234.408600 109.956696,228.789169 
	C110.190262,224.971619 110.136772,221.122086 109.966469,217.297791 
	C109.739128,212.192764 109.688881,207.023865 108.790810,202.020935 
	C107.944687,197.307388 103.873306,196.315948 99.859863,197.148346 
	C96.212776,197.904755 93.954483,200.440674 93.980957,204.588120 
	C94.049042,215.250275 94.094200,225.914169 93.973083,236.575378 
	C93.892090,243.704590 101.499641,252.674454 110.005333,252.213608 
	C116.363312,251.869125 121.972809,250.850037 126.519928,246.245422 
	C132.460083,254.114639 137.551208,254.129913 143.023499,246.846756 
	C147.228699,248.316269 151.247711,250.222061 155.478210,251.059631 
	C159.805847,251.916428 164.345169,252.003494 168.784027,251.933350 
	C176.767349,251.807236 183.613220,246.338531 184.815811,238.962341 
	C185.960968,231.938354 184.664917,225.106110 175.615997,221.305878 
	C171.521851,219.586487 167.155090,218.453568 163.216370,216.454819 
	C161.397324,215.531738 160.308197,213.170303 158.888138,211.461014 
	C161.213837,210.785767 163.518112,210.012772 165.878357,209.494995 
	C166.584305,209.340118 167.475922,209.828186 168.232773,210.141708 
	C173.252563,212.221115 178.193008,214.816620 183.643173,211.136475 
	C184.262451,210.718338 185.513824,211.236313 187.001785,211.366623 
	C187.001785,220.007523 186.954178,228.470627 187.016190,236.932907 
	C187.070038,244.282349 191.192627,251.128387 196.979691,251.688766 
	C203.728745,252.342270 211.068268,253.802582 216.411301,247.275940 
	C218.974350,251.789703 223.007904,253.099564 227.199051,251.629013 
	C231.118179,250.253876 232.408096,246.624664 232.078506,242.295105 
	C231.728683,237.699646 231.999878,233.056931 231.999878,228.434845 
	C236.485336,253.733093 262.757172,257.808502 277.717468,247.594528 
	C281.215820,245.206100 282.145142,240.946121 280.158997,237.577530 
	C278.421356,234.630432 274.394684,234.229156 270.459259,236.209946 
	C267.726471,237.585434 264.819427,238.806763 261.850342,239.480942 
	C255.572708,240.906357 249.744171,236.431137 249.540131,229.998474 
	C258.695129,229.998474 267.858093,230.293152 276.980713,229.816040 
	C279.661560,229.675842 282.227997,227.347672 285.225677,226.734940 
	C285.483856,227.823593 285.827087,228.899979 285.986298,230.002930 
	C286.994080,236.985168 290.166962,242.828644 295.869202,246.914703 
	C308.240479,255.779572 322.763092,254.299133 333.857635,245.257828 
	C337.646332,250.164673 342.640503,252.147385 348.901489,252.109985 
	C354.993195,252.073608 360.654938,251.460434 365.318085,246.589859 
	C367.116669,250.853500 369.919189,252.635239 374.105072,251.998642 
	C378.776489,251.288177 380.660645,248.025391 381.495056,242.737991 
	C382.278534,244.874268 382.715088,245.906830 383.038574,246.973679 
	C384.513367,251.837372 388.315063,252.511307 392.487579,251.912796 
	C396.613312,251.320969 398.112000,248.433731 398.017883,244.454498 
	C397.931274,240.791168 397.923523,237.122238 398.014679,233.459091 
	C398.365631,219.354996 401.009369,215.556122 413.572723,211.250244 
	C412.899353,213.554321 412.147186,215.651779 411.678894,217.810852 
	C409.351227,228.542175 411.660706,238.360687 419.586243,245.844269 
	C429.350555,255.064041 446.443604,255.160889 457.253235,246.912872 
	C460.255707,244.621857 460.751495,241.684814 459.079620,238.179581 
	C457.285004,234.417068 454.316711,234.462296 451.139221,235.453690 
	C449.130371,236.080444 447.330200,237.345535 445.375580,238.182098 
	C437.149292,241.702774 429.307312,238.234238 427.365906,229.999832 
	C436.909332,229.999832 446.385986,230.016556 455.862579,229.992981 
	C460.845978,229.980591 464.308990,226.434143 463.946655,221.632782 
	C463.825256,220.024414 463.405518,218.421417 462.974945,216.856476 
	C461.059448,209.893692 457.973816,203.848282 451.323608,200.012573 
	C445.362671,196.574463 438.965393,196.621628 432.585968,197.096848 
	C425.839508,197.599380 420.754547,201.637726 417.401154,205.536606 
	C415.220184,202.673874 413.628326,198.416382 410.824158,197.351639 
	C404.853546,195.084610 401.203217,199.613434 398.798615,204.072159 
	C397.725708,202.321884 397.058105,199.768188 395.561035,199.114716 
	C392.955139,197.977264 388.920654,196.670181 387.154175,197.877121 
	C384.645630,199.591095 383.148010,203.361938 382.163452,206.546112 
	C381.378021,209.086273 382.004944,212.063126 382.004944,214.846146 
	C376.766998,203.345642 375.646606,201.658051 368.296173,198.817886 
	C361.359558,196.137650 354.214172,196.621811 346.964172,197.833282 
	C341.366425,198.768661 336.185089,199.689758 334.640045,206.337616 
	C330.756836,198.865753 319.703125,195.110443 307.497711,197.034271 
	C297.403229,198.625366 288.111420,208.042480 285.269501,218.557999 
M75.966469,249.411972 
	C79.191429,250.163635 82.755371,252.137543 85.556419,251.360703 
	C89.138565,250.367249 90.159370,246.526398 90.102234,242.390747 
	C89.860497,224.894836 90.008575,207.393646 89.994637,189.894394 
	C89.989822,183.852646 87.381767,180.994522 81.966774,181.003006 
	C76.816559,181.011078 74.057480,184.125656 74.011826,190.117493 
	C73.965279,196.226364 74.001526,202.335861 74.001526,208.691788 
	C64.757729,208.691788 56.190666,208.691788 46.984985,208.691788 
	C46.984985,201.778442 47.134338,195.158295 46.935577,188.548584 
	C46.788624,183.661758 43.426826,180.871048 38.462784,181.003937 
	C33.887276,181.126419 31.024128,184.100540 31.015219,188.964935 
	C30.981644,207.297424 30.962975,225.630234 31.066578,243.962204 
	C31.076059,245.639862 31.574543,247.644180 32.578407,248.920853 
	C34.946877,251.932922 38.287537,252.877716 41.945480,251.471909 
	C45.407539,250.141388 47.031509,247.455063 47.006733,243.714493 
	C46.964138,237.284088 46.994949,230.853210 46.994949,224.367584 
	C56.365074,224.367584 64.933388,224.367584 74.000000,224.367584 
	C74.000000,228.857315 73.816338,232.999863 74.053040,237.118225 
	C74.277733,241.027817 74.942436,244.912109 75.966469,249.411972 
z"/>
<path fill="#26973C" opacity="1.000000" stroke="none" 
	d="
M284.846863,226.022247 
	C282.227997,227.347672 279.661560,229.675842 276.980713,229.816040 
	C267.858093,230.293152 258.695129,229.998474 249.540131,229.998474 
	C249.744171,236.431137 255.572708,240.906357 261.850342,239.480942 
	C264.819427,238.806763 267.726471,237.585434 270.459259,236.209946 
	C274.394684,234.229156 278.421356,234.630432 280.158997,237.577530 
	C282.145142,240.946121 281.215820,245.206100 277.717468,247.594528 
	C262.757172,257.808502 236.485336,253.733093 231.999878,228.434845 
	C231.999878,233.056931 231.728683,237.699646 232.078506,242.295105 
	C232.408096,246.624664 231.118179,250.253876 227.199051,251.629013 
	C223.007904,253.099564 218.974350,251.789703 216.411301,247.275940 
	C211.068268,253.802582 203.728745,252.342270 196.979691,251.688766 
	C191.192627,251.128387 187.070038,244.282349 187.016190,236.932907 
	C186.954178,228.470627 187.001785,220.007523 187.001785,211.366623 
	C185.513824,211.236313 184.262451,210.718338 183.643173,211.136475 
	C178.193008,214.816620 173.252563,212.221115 168.232773,210.141708 
	C167.475922,209.828186 166.584305,209.340118 165.878357,209.494995 
	C163.518112,210.012772 161.213837,210.785767 158.888138,211.461014 
	C160.308197,213.170303 161.397324,215.531738 163.216370,216.454819 
	C167.155090,218.453568 171.521851,219.586487 175.615997,221.305878 
	C184.664917,225.106110 185.960968,231.938354 184.815811,238.962341 
	C183.613220,246.338531 176.767349,251.807236 168.784027,251.933350 
	C164.345169,252.003494 159.805847,251.916428 155.478210,251.059631 
	C151.247711,250.222061 147.228699,248.316269 143.023499,246.846756 
	C137.551208,254.129913 132.460083,254.114639 126.519928,246.245422 
	C121.972809,250.850037 116.363312,251.869125 110.005333,252.213608 
	C101.499641,252.674454 93.892090,243.704590 93.973083,236.575378 
	C94.094200,225.914169 94.049042,215.250275 93.980957,204.588120 
	C93.954483,200.440674 96.212776,197.904755 99.859863,197.148346 
	C103.873306,196.315948 107.944687,197.307388 108.790810,202.020935 
	C109.688881,207.023865 109.739128,212.192764 109.966469,217.297791 
	C110.136772,221.122086 110.190262,224.971619 109.956696,228.789169 
	C109.612900,234.408600 112.647415,237.676514 118.588966,237.926132 
	C123.000900,238.111511 126.911018,233.657028 126.973587,228.598831 
	C127.062180,221.435989 126.988823,214.271255 127.003311,207.107346 
	C127.016716,200.477295 129.493988,197.212753 134.627975,197.011703 
	C139.822037,196.808304 142.361511,199.627304 143.084946,206.355011 
	C143.131348,206.786621 143.394867,207.194885 142.296722,206.153458 
	C145.207397,204.104492 148.074905,201.990570 151.037949,200.020370 
	C156.838989,196.163116 163.664658,195.867462 169.765411,197.406174 
	C175.493469,198.850891 180.684875,199.689545 186.792160,197.152802 
	C186.826279,191.051773 186.823654,183.088699 195.973389,183.395142 
	C204.488358,183.680328 202.764984,191.548492 203.146759,197.281204 
	C207.454926,197.976273 211.530548,198.633820 216.003342,199.355453 
	C216.003342,195.500793 215.941925,191.049698 216.018799,186.601028 
	C216.115952,180.978699 219.222687,177.934570 224.635376,178.005890 
	C229.260376,178.066833 231.981720,181.189301 231.992340,186.558365 
	C232.014709,197.873840 231.999130,209.189377 232.272461,220.604660 
	C234.242157,210.444031 238.900452,202.140396 249.008545,198.630157 
	C263.884918,193.464050 279.569977,198.365097 284.088257,215.838928 
	C284.332581,216.783920 284.869019,217.653381 285.585510,219.160980 
	C285.549927,221.850052 285.198395,223.936142 284.846863,226.022247 
M206.547028,211.007065 
	C205.371841,211.946091 203.224976,212.840134 203.179062,213.831421 
	C202.880600,220.278717 202.801666,226.762177 203.210815,233.198212 
	C203.315414,234.843994 205.126755,237.138916 206.699997,237.766220 
	C209.450836,238.863098 212.624710,238.899033 215.620987,239.374588 
	C215.620987,229.252762 215.620987,219.130951 215.620987,209.595749 
	C212.682617,210.099976 210.054932,210.550903 206.547028,211.007065 
M155.831299,237.884018 
	C158.681091,238.587433 161.535263,239.825806 164.379089,239.802475 
	C166.214737,239.787415 168.035202,237.923050 169.862473,236.887451 
	C168.527252,235.399231 167.433960,233.007477 165.816223,232.574326 
	C157.405151,230.322266 149.266190,227.804489 143.320511,218.949829 
	C143.320511,225.273041 143.320511,229.945557 143.320511,233.417480 
	C147.710846,234.960495 151.410889,236.260910 155.831299,237.884018 
M252.131393,219.998474 
	C257.735474,219.998474 263.339569,219.998474 268.962555,219.998474 
	C268.575470,214.339279 265.556854,210.624435 261.096252,210.028839 
	C255.529861,209.285583 250.632172,211.949203 249.219345,216.609375 
	C248.687790,218.362686 248.173111,220.365082 252.131393,219.998474 
z"/>
<path fill="#80CC28" opacity="1.000000" stroke="none" 
	d="
M285.036255,226.378601 
	C285.198395,223.936142 285.549927,221.850052 285.875427,219.369278 
	C288.111420,208.042480 297.403229,198.625366 307.497711,197.034271 
	C319.703125,195.110443 330.756836,198.865753 334.640045,206.337616 
	C336.185089,199.689758 341.366425,198.768661 346.964172,197.833282 
	C354.214172,196.621811 361.359558,196.137650 368.296173,198.817886 
	C375.646606,201.658051 376.766998,203.345642 382.004944,214.846146 
	C382.004944,212.063126 381.378021,209.086273 382.163452,206.546112 
	C383.148010,203.361938 384.645630,199.591095 387.154175,197.877121 
	C388.920654,196.670181 392.955139,197.977264 395.561035,199.114716 
	C397.058105,199.768188 397.725708,202.321884 398.798615,204.072159 
	C401.203217,199.613434 404.853546,195.084610 410.824158,197.351639 
	C413.628326,198.416382 415.220184,202.673874 417.401154,205.536606 
	C420.754547,201.637726 425.839508,197.599380 432.585968,197.096848 
	C438.965393,196.621628 445.362671,196.574463 451.323608,200.012573 
	C457.973816,203.848282 461.059448,209.893692 462.974945,216.856476 
	C463.405518,218.421417 463.825256,220.024414 463.946655,221.632782 
	C464.308990,226.434143 460.845978,229.980591 455.862579,229.992981 
	C446.385986,230.016556 436.909332,229.999832 427.365906,229.999832 
	C429.307312,238.234238 437.149292,241.702774 445.375580,238.182098 
	C447.330200,237.345535 449.130371,236.080444 451.139221,235.453690 
	C454.316711,234.462296 457.285004,234.417068 459.079620,238.179581 
	C460.751495,241.684814 460.255707,244.621857 457.253235,246.912872 
	C446.443604,255.160889 429.350555,255.064041 419.586243,245.844269 
	C411.660706,238.360687 409.351227,228.542175 411.678894,217.810852 
	C412.147186,215.651779 412.899353,213.554321 413.572723,211.250244 
	C401.009369,215.556122 398.365631,219.354996 398.014679,233.459091 
	C397.923523,237.122238 397.931274,240.791168 398.017883,244.454498 
	C398.112000,248.433731 396.613312,251.320969 392.487579,251.912796 
	C388.315063,252.511307 384.513367,251.837372 383.038574,246.973679 
	C382.715088,245.906830 382.278534,244.874268 381.495056,242.737991 
	C380.660645,248.025391 378.776489,251.288177 374.105072,251.998642 
	C369.919189,252.635239 367.116669,250.853500 365.318085,246.589859 
	C360.654938,251.460434 354.993195,252.073608 348.901489,252.109985 
	C342.640503,252.147385 337.646332,250.164673 333.857635,245.257828 
	C322.763092,254.299133 308.240479,255.779572 295.869202,246.914703 
	C290.166962,242.828644 286.994080,236.985168 285.986298,230.002930 
	C285.827087,228.899979 285.483856,227.823593 285.036255,226.378601 
M346.526581,218.978302 
	C352.576538,218.978302 358.626526,218.978302 366.013000,218.978302 
	C364.247620,216.492630 363.013580,212.819168 361.056763,212.382126 
	C356.214508,211.300674 350.623383,210.400009 346.112244,211.850174 
	C341.030579,213.483704 338.211365,212.257309 335.382416,208.606613 
	C331.540466,216.613358 327.061554,216.235382 322.317047,213.607315 
	C309.592926,206.559235 302.681213,213.580673 301.233337,222.933243 
	C299.747314,232.532272 308.909332,241.623856 318.428558,237.972198 
	C322.452118,236.428726 326.364929,234.596390 330.934723,232.634949 
	C332.503204,225.464996 336.998260,220.081879 346.526581,218.978302 
M349.089325,239.551041 
	C357.037628,244.068954 366.092682,238.368881 365.718536,229.715424 
	C362.247833,229.164536 358.564941,227.919052 354.980652,228.157364 
	C348.733795,228.572693 344.319733,233.163330 349.089325,239.551041 
M436.529694,220.000000 
	C440.260254,220.000000 443.990814,220.000000 447.829376,220.000000 
	C445.848267,210.890778 441.375366,209.392517 435.534149,209.986832 
	C431.816284,210.365082 427.936676,214.747009 427.220856,220.000000 
	C430.043549,220.000000 432.804413,220.000000 436.529694,220.000000 
z"/>
<path fill="#26973C" opacity="1.000000" stroke="none" 
	d="
M75.690063,249.109741 
	C74.942436,244.912109 74.277733,241.027817 74.053040,237.118225 
	C73.816338,232.999863 74.000000,228.857315 74.000000,224.367584 
	C64.933388,224.367584 56.365074,224.367584 46.994949,224.367584 
	C46.994949,230.853210 46.964138,237.284088 47.006733,243.714493 
	C47.031509,247.455063 45.407539,250.141388 41.945480,251.471909 
	C38.287537,252.877716 34.946877,251.932922 32.578407,248.920853 
	C31.574543,247.644180 31.076059,245.639862 31.066578,243.962204 
	C30.962975,225.630234 30.981644,207.297424 31.015219,188.964935 
	C31.024128,184.100540 33.887276,181.126419 38.462784,181.003937 
	C43.426826,180.871048 46.788624,183.661758 46.935577,188.548584 
	C47.134338,195.158295 46.984985,201.778442 46.984985,208.691788 
	C56.190666,208.691788 64.757729,208.691788 74.001526,208.691788 
	C74.001526,202.335861 73.965279,196.226364 74.011826,190.117493 
	C74.057480,184.125656 76.816559,181.011078 81.966774,181.003006 
	C87.381767,180.994522 89.989822,183.852646 89.994637,189.894394 
	C90.008575,207.393646 89.860497,224.894836 90.102234,242.390747 
	C90.159370,246.526398 89.138565,250.367249 85.556419,251.360703 
	C82.755371,252.137543 79.191429,250.163635 75.690063,249.109741 
z"/>
<path fill="#000000" opacity="1.000000" stroke="none" 
	d="
M206.987137,211.004440 
	C210.054932,210.550903 212.682617,210.099976 215.620987,209.595749 
	C215.620987,219.130951 215.620987,229.252762 215.621155,239.377045 
	C212.624710,238.899033 209.450836,238.863098 206.699997,237.766220 
	C205.126755,237.138916 203.315414,234.843994 203.210815,233.198212 
	C202.801666,226.762177 202.880600,220.278717 203.179062,213.831421 
	C203.224976,212.840134 205.371841,211.946091 206.987137,211.004440 
z"/>
<path fill="#000000" opacity="1.000000" stroke="none" 
	d="
M155.471115,237.722672 
	C151.410889,236.260910 147.710846,234.960495 143.320511,233.417480 
	C143.320511,229.945557 143.320511,225.273041 143.320511,218.949829 
	C149.266190,227.804489 157.405151,230.322266 165.816223,232.574326 
	C167.433960,233.007477 168.527252,235.399231 169.862473,236.887451 
	C168.035202,237.923050 166.214737,239.787415 164.379089,239.802475 
	C161.535263,239.825806 158.681091,238.587433 155.471115,237.722672 
z"/>
<path fill="#000000" opacity="1.000000" stroke="none" 
	d="
M251.714188,219.996185 
	C248.173111,220.365082 248.687790,218.362686 249.219345,216.609375 
	C250.632172,211.949203 255.529861,209.285583 261.096252,210.028839 
	C265.556854,210.624435 268.575470,214.339279 268.962555,219.998474 
	C263.339569,219.998474 257.735474,219.998474 251.714188,219.996185 
z"/>
<path fill="#000000" opacity="1.000000" stroke="none" 
	d="
M346.095886,218.988113 
	C336.998260,220.081879 332.503204,225.464996 330.934723,232.634949 
	C326.364929,234.596390 322.452118,236.428726 318.428558,237.972198 
	C308.909332,241.623856 299.747314,232.532272 301.233337,222.933243 
	C302.681213,213.580673 309.592926,206.559235 322.317047,213.607315 
	C327.061554,216.235382 331.540466,216.613358 335.382416,208.606613 
	C338.211365,212.257309 341.030579,213.483704 346.112244,211.850174 
	C350.623383,210.400009 356.214508,211.300674 361.056763,212.382126 
	C363.013580,212.819168 364.247620,216.492630 366.013000,218.978302 
	C358.626526,218.978302 352.576538,218.978302 346.095886,218.988113 
z"/>
<path fill="#000000" opacity="1.000000" stroke="none" 
	d="
M348.790527,239.267487 
	C344.319733,233.163330 348.733795,228.572693 354.980652,228.157364 
	C358.564941,227.919052 362.247833,229.164536 365.718536,229.715424 
	C366.092682,238.368881 357.037628,244.068954 348.790527,239.267487 
z"/>
<path fill="#000000" opacity="1.000000" stroke="none" 
	d="
M436.047485,220.000000 
	C432.804413,220.000000 430.043549,220.000000 427.220856,220.000000 
	C427.936676,214.747009 431.816284,210.365082 435.534149,209.986832 
	C441.375366,209.392517 445.848267,210.890778 447.829376,220.000000 
	C443.990814,220.000000 440.260254,220.000000 436.047485,220.000000 
z"/>
</svg>